<?xml version="1.0" encoding="UTF-8" standalone="no"?>
<!-- Created with Inkscape (http://www.inkscape.org/) -->
<svg id="svg2" xmlns:rdf="http://www.w3.org/1999/02/22-rdf-syntax-ns#" xmlns="http://www.w3.org/2000/svg" height="250.96" width="700.16" version="1.1" xmlns:cc="http://creativecommons.org/ns#" xmlns:dc="http://purl.org/dc/elements/1.1/" viewBox="0 0 700.16191 250.96403">
 <g id="layer1" opacity="0.97" transform="translate(.075756 -772.59)">
  <path id="path4152" d="m0.0089703 898.06 0.025277-0.004c0.0044273-0.00068 0.094252-0.0145 0.098679-0.0152 0.1282-0.0198 0.25637-0.0398 0.38453-0.0598 0.49188-0.0769 0.98359-0.15478 1.4752-0.23335 1.8127-0.28971 3.6241-0.58815 5.4344-0.8927l0.000037-0.00001c6.0391-1.016 12.067-2.0996 18.08-3.2567l0.000074-0.00001c7.5317-1.4493 15.043-3.0095 22.507-4.7752 0.000012 0 0.000024-0.00001 0.000036-0.00001 6.9745-1.65 13.927-3.4377 20.706-5.7617 28.024-9.6062 55.151-21.786 81.052-36.166 0.00001 0 0.00002-0.00001 0.00003-0.00002l0.00003-0.00002c20.364-11.306 39.925-23.996 60.067-35.691 18.995-11.029 38.823-20.828 59.827-27.253 25.936-7.934 53.21-10.854 80.333-10.854 25.722 0 51.548 3.1723 76.088 10.879 21.057 6.6128 40.945 16.499 60.118 27.431 20.769 11.842 40.996 24.623 61.928 36.174 0.00001 0 0.00002 0.00001 0.00004 0.00001 26.168 14.44 53.393 26.993 81.517 37.107 0.00001 0 0.00002 0.00001 0.00004 0.00001 15.16 5.452 31.04 8.6893 46.993 10.94 5.5781 0.78707 11.175 1.4385 16.787 1.9373 1.6092 0.14304 3.2195 0.27356 4.8312 0.38486 0.4297 0.0297 0.8595 0.058 1.2894 0.0839 0.11123 0.007 0.22247 0.0132 0.33373 0.0195 0.0285 0.002 0.057 0.003 0.0854 0.005-0.009-0.00047 0.0384 0.002 0.0298 0.002-0.003 0.00055-0.0263 0.005-0.0294 0.005l-0.00007 0.00001c-0.004 0.00067-0.0805 0.0141-0.0843 0.0148l-0.00007 0.00001c-0.10996 0.0194-0.21989 0.0389-0.32981 0.0584l-0.00007 0.00002c-0.42523 0.0757-0.85028 0.15246-1.2752 0.22981l-0.00008 0.00002c-1.5961 0.29054-3.1907 0.58948-4.7842 0.89387l-0.00007 0.00001c-5.5716 1.0642-11.13 2.1952-16.677 3.3849-0.00003 0-0.00005 0.00001-0.00007 0.00001-15.871 3.4046-31.667 7.2263-47.169 12.041-0.00002 0.00001-0.00005 0.00001-0.00007 0.00002-29.957 9.3039-59.135 21.102-87.142 35.231-0.00002 0.00001-0.00004 0.00002-0.00007 0.00003-21.692 10.943-42.604 23.351-63.803 35.22-18.712 10.477-37.883 20.35-58.243 27.088h-0.00007c-10.629 3.5171-21.538 6.1849-32.593 7.9563-12.514 2.0052-25.197 2.8777-37.87 2.8777-25.729 0-51.557-3.1814-76.114-10.859-21.093-6.5951-41.031-16.435-60.296-27.266-20.893-11.746-41.291-24.37-62.411-35.703-0.00003-0.00001-0.00005-0.00002-0.00007-0.00003-26.49-14.21-54.044-26.43-82.469-36.17-6.7798-2.324-13.732-4.1117-20.706-5.7617l-0.000073-0.00002c-7.4638-1.7658-14.975-3.326-22.507-4.7752-0.000025 0-0.00005 0-0.000074-0.00001-6.0136-1.1572-12.041-2.2408-18.08-3.2567 0 0-0.0000741-0.00001-0.0000741-0.00001-1.8103-0.30455-3.6216-0.60299-5.4343-0.8927l-0.0000743-0.00001c-0.49156-0.0786-0.98322-0.15649-1.4751-0.23333 0 0-0.00007431-0.00001-0.00007431-0.00001-0.12816-0.02-0.25634-0.04-0.38453-0.0598 0.006058 0.00093-0.10474-0.0162-0.098679-0.0152l-0.025277-0.004c-0.0089947-0.001-0.0090008-0.001-0.0090008-0.001" stroke="#000" stroke-width="1px" fill="none"/>
 </g>
</svg>
