<?xml version="1.0" encoding="UTF-8" standalone="no"?>
<!-- Created with Inkscape (http://www.inkscape.org/) -->
<svg id="svg2" xmlns:rdf="http://www.w3.org/1999/02/22-rdf-syntax-ns#" xmlns="http://www.w3.org/2000/svg" height="230.96" width="700.17" version="1.1" xmlns:cc="http://creativecommons.org/ns#" xmlns:dc="http://purl.org/dc/elements/1.1/" viewBox="0 0 700.16704 230.96366">
 <metadata id="metadata7">
  <rdf:RDF>
   <cc:Work rdf:about="">
    <dc:format>image/svg+xml</dc:format>
    <dc:type rdf:resource="http://purl.org/dc/dcmitype/StillImage"/>
    <dc:title/>
   </cc:Work>
  </rdf:RDF>
 </metadata>
 <g id="layer1" transform="translate(.080879 -816.9)">
  <path id="path4152" d="m0.0089703 932.36 0.025277-0.004c0.0044273-0.00068 0.094252-0.0145 0.098679-0.0152 0.1282-0.0198 0.25637-0.0398 0.38453-0.0598 0.49188-0.0769 0.98359-0.15478 1.4752-0.23335 1.8127-0.28971 3.624-0.58815 5.4343-0.8927l0.0000733-0.00001 0.0000733-0.00001c6.039-1.02 12.067-2.1 18.081-3.26l0.000073-0.00001c7.5317-1.4493 15.043-3.0095 22.507-4.7752 0.000012 0 0.000024-0.00001 0.000036-0.00001 6.9745-1.65 13.927-3.4377 20.706-5.7617 27.814-9.5342 54.894-21.177 81.052-34.604l0.00006-0.00003c20.219-10.378 39.856-21.86 60.067-32.253 19.128-9.8364 39.029-18.331 59.827-23.816 26.138-6.8925 53.301-9.2912 80.332-9.2912 25.628 0 51.351 2.6162 76.088 9.3166 20.864 5.6513 40.828 14.241 60.118 23.994 20.838 10.535 41.134 22.113 61.928 32.736 0.00001 0 0.00002 0.00001 0.00003 0.00001 26.416 13.496 53.603 25.506 81.517 35.545 0.00002 0.00001 0.00005 0.00001 0.00007 0.00002 15.16 5.452 31.04 8.6893 46.993 10.94 5.5781 0.78707 11.175 1.4385 16.787 1.9373 1.6092 0.14304 3.2195 0.27356 4.8312 0.38486 0.4297 0.0297 0.8595 0.058 1.2894 0.0839 0.11123 0.007 0.22247 0.0132 0.33373 0.0195 0.0285 0.002 0.057 0.003 0.0854 0.005-0.009-0.00047 0.0384 0.002 0.0298 0.002-0.003 0.00055-0.0263 0.005-0.0294 0.005l-0.00007 0.00001c-0.004 0.00067-0.0805 0.0141-0.0843 0.0148l-0.00007 0.00001c-0.10996 0.0194-0.21989 0.0389-0.32981 0.0584l-0.00007 0.00002c-0.42523 0.0757-0.85028 0.15246-1.2752 0.22981l-0.00008 0.00002c-1.5961 0.29054-3.1907 0.58948-4.7842 0.89387-0.00003 0-0.00005 0.00001-0.00007 0.00001-5.5716 1.0642-11.13 2.1952-16.677 3.3849-0.00003 0-0.00005 0.00001-0.00007 0.00001-15.871 3.4046-31.667 7.2263-47.169 12.041-0.00002 0.00001-0.00005 0.00001-0.00007 0.00002-29.762 9.2433-58.891 20.512-87.142 33.668-0.00002 0.00002-0.00005 0.00003-0.00007 0.00004-21.54 10.031-42.51 21.236-63.803 31.782-18.804 9.3138-38.063 17.897-58.243 23.65-0.00002 0-0.00005 0.0001-0.00007 0.0001-22.858 6.5166-46.694 9.2714-70.463 9.2714-25.635 0-51.362-2.6253-76.114-9.2969-20.903-5.634-40.917-14.178-60.296-23.828h-0.00006c-20.965-10.439-41.431-21.857-62.411-32.266-26.723-13.258-54.239-24.936-82.458-34.609-0.000024-0.00001-0.000048-0.00001-0.000072-0.00002-6.7797-2.324-13.732-4.1117-20.706-5.7617-0.000024-0.00001-0.000048-0.00001-0.000072-0.00002-7.4638-1.7658-14.975-3.326-22.507-4.7752l-25.508-4.4631h-0.000018073" stroke="#000" stroke-width="1px" fill="none"/>
 </g>
</svg>
